<svg xmlns="http://www.w3.org/2000/svg" version="1.1" xmlns:xlink="http://www.w3.org/1999/xlink" xmlns:svgjs="http://svgjs.dev/svgjs" width="1500" height="1500" viewBox="0 0 1500 1500"><rect width="1500" height="1500" fill="#ffffff"></rect><g transform="matrix(0.6666666666666666,0,0,0.6666666666666666,250.16994382022466,658.500738367361)"><svg viewBox="0 0 356 65" data-background-color="#ffffff" preserveAspectRatio="xMidYMid meet" height="273" width="1500" xmlns="http://www.w3.org/2000/svg" xmlns:xlink="http://www.w3.org/1999/xlink"><g id="tight-bounds" transform="matrix(1,0,0,1,-0.06049999999996203,0.17830772594248856)"><svg viewBox="0 0 356.12052 64.643384548115" height="64.643384548115" width="356.12052"><g><svg viewBox="0 0 356.12052 64.643384548115" height="64.643384548115" width="356.12052"><g><svg viewBox="0 0 356.12052 64.643384548115" height="64.643384548115" width="356.12052"><g><path d="M0 64.643v-64.643h356.121v64.643z" fill="#c10000" stroke="transparent" stroke-width="0" rx="0%" data-fill-palette-color="tertiary"></path><path d="M3.283 61.36v-58.077h349.554v58.077z" fill="#ffffff" stroke="transparent" stroke-width="0" rx="0%" data-fill-palette-color="quaternary"></path><path d="M9.85 54.794v-44.944h336.421v44.944z" fill="#c10000" stroke="transparent" stroke-width="0" data-fill-palette-color="tertiary"></path></g><g transform="matrix(1,0,0,1,19.69974,19.69974)" id="textblocktransform"><svg viewBox="0 0 316.72104 25.243904548115" height="25.243904548115" width="316.72104" id="textblock"><g><svg viewBox="0 0 316.72104 25.243904548115" height="25.243904548115" width="316.72104"><g transform="matrix(1,0,0,1,0,0)"><svg width="316.72104" viewBox="0.95 -36.95 580.8399999999999 46.300000000000004" height="25.243904548115" data-palette-color="#ffffff"><path d="M18.2-21.3L21.55-33.2 27.25-33.2 30.55-21.3Q31.6-17.55 32.43-14.33 33.25-11.1 33.55-9.75L33.55-9.75 33.85-8.4Q34.5-12.85 36.65-21.35L36.65-21.35 39.75-33.7 47.6-33.7 38.6 0 30 0 27.05-10.65Q26-14.5 25.33-17.15 24.65-19.8 24.5-20.55L24.5-20.55 24.4-21.3Q24.25-19.25 21.7-10.65L21.7-10.65 18.6 0 10 0 0.95-33.7 9.05-33.7 12.15-21.3Q13.15-17.3 13.8-14.08 14.45-10.85 14.6-9.6L14.6-9.6 14.8-8.4Q15.65-12.3 18.2-21.3L18.2-21.3ZM57.4-15L66.2-15 66.2-15.6Q65.85-20.05 62.3-20.05L62.3-20.05Q60.55-20.05 59.2-18.78 57.85-17.5 57.4-15L57.4-15ZM71.45-7.55L71.45-7.55 71.45-1.45Q68.85 0.25 63.5 0.25L63.5 0.25Q57.25 0.25 53.77-3.38 50.3-7 50.3-12.7L50.3-12.7Q50.3-18.75 53.67-22.18 57.05-25.6 62-25.6L62-25.6Q67.1-25.6 70.05-22.63 73-19.65 73-13.75L73-13.75Q73-12.6 72.6-9.8L72.6-9.8 57.7-9.8Q58.45-7.7 60.3-6.55 62.15-5.4 64.75-5.4L64.75-5.4Q68.6-5.4 71.45-7.55ZM94.2-24.6L94.2-24.6 94.2-18.35Q91.55-19.9 88-19.9L88-19.9Q86.7-19.9 86-19.38 85.3-18.85 85.3-18.05L85.3-18.05Q85.3-17.6 85.55-17.2 85.8-16.8 86.37-16.45 86.95-16.1 87.47-15.83 88-15.55 88.92-15.15 89.85-14.75 90.4-14.45L90.4-14.45Q92.7-13.25 94.1-11.68 95.5-10.1 95.5-7.65L95.5-7.65Q95.5-3.9 92.8-1.85 90.1 0.2 85.65 0.2L85.65 0.2Q81.05 0.2 77.95-1.35L77.95-1.35 77.95-7.85Q81.4-5.45 85.25-5.45L85.25-5.45Q88-5.45 88-7.2L88-7.2Q88-7.65 87.75-8.05 87.5-8.45 86.9-8.8 86.3-9.15 85.8-9.38 85.3-9.6 84.35-10 83.4-10.4 82.9-10.65L82.9-10.65Q77.85-13.05 77.85-17.85L77.85-17.85Q77.85-21.55 80.67-23.6 83.5-25.65 87.7-25.65L87.7-25.65Q91.6-25.65 94.2-24.6ZM114.34-20L108.44-20 108.44-8.35Q108.44-7 109.22-6.3 109.99-5.6 111.24-5.6L111.24-5.6Q113.24-5.6 114.79-6.6L114.79-6.6 114.79-0.55Q112.94 0.25 109.79 0.25L109.79 0.25Q101.14 0.25 101.14-8.4L101.14-8.4 101.14-20 97.49-20 97.49-25.35 101.14-25.35 101.14-31.35 108.44-31.35 108.44-25.35 114.34-25.35 114.34-20ZM119.29-25.35L126.54-25.35 126.54-20.65Q127.24-22.85 128.87-24.18 130.49-25.5 132.64-25.5L132.64-25.5Q133.84-25.5 134.54-25.3L134.54-25.3 134.54-18.4Q133.34-18.95 131.79-18.95L131.79-18.95Q129.44-18.95 127.99-17.23 126.54-15.5 126.54-12.65L126.54-12.65 126.54 0 119.24 0 119.29-25.35ZM143.64-15L152.44-15 152.44-15.6Q152.09-20.05 148.54-20.05L148.54-20.05Q146.79-20.05 145.44-18.78 144.09-17.5 143.64-15L143.64-15ZM157.69-7.55L157.69-7.55 157.69-1.45Q155.09 0.25 149.74 0.25L149.74 0.25Q143.49 0.25 140.01-3.38 136.54-7 136.54-12.7L136.54-12.7Q136.54-18.75 139.91-22.18 143.29-25.6 148.24-25.6L148.24-25.6Q153.34-25.6 156.29-22.63 159.24-19.65 159.24-13.75L159.24-13.75Q159.24-12.6 158.84-9.8L158.84-9.8 143.94-9.8Q144.69-7.7 146.54-6.55 148.39-5.4 150.99-5.4L150.99-5.4Q154.84-5.4 157.69-7.55ZM164.44-25.35L171.74-25.35 171.74-21.05Q172.69-23.15 174.66-24.38 176.64-25.6 179.39-25.6L179.39-25.6Q183.29-25.6 185.49-23.28 187.69-20.95 187.69-16.45L187.69-16.45 187.69 0 180.39 0 180.39-15.1Q180.39-17.35 179.34-18.53 178.29-19.7 176.39-19.7L176.39-19.7Q174.39-19.7 173.06-18.13 171.74-16.55 171.74-13.4L171.74-13.4 171.74 0 164.44 0 164.44-25.35ZM213.93-13.8L213.93-6.15 227.13-6.15 227.13 0 206.18 0 206.18-33.7 226.93-33.7 226.93-27.55 213.93-27.55 213.93-19.9 225.53-19.9 225.53-13.8 213.93-13.8ZM244.78-5.8L244.78-5.8Q247.28-5.8 248.83-7.75 250.38-9.7 250.38-12.95L250.38-12.95Q250.38-16.1 248.7-17.85 247.03-19.6 244.73-19.6 242.43-19.6 240.85-17.75 239.28-15.9 239.28-12.6L239.28-12.6Q239.28-9.55 240.88-7.68 242.48-5.8 244.78-5.8ZM250.38-21.45L250.38-35.35 257.68-35.35 257.68 0 250.38 0 250.38-3.95Q247.83 0.3 242.78 0.3L242.78 0.3Q237.83 0.3 234.85-3.55 231.88-7.4 231.88-12.75L231.88-12.75Q231.88-18.75 234.98-22.2 238.08-25.65 242.83-25.65L242.83-25.65Q247.78-25.65 250.38-21.45L250.38-21.45ZM279.38-11.95L279.38-25.35 286.68-25.35 286.68 0 279.38 0 279.38-4.05Q277.38 0.2 271.68 0.2L271.68 0.2Q267.78 0.2 265.6-1.98 263.43-4.15 263.43-8.4L263.43-8.4 263.43-25.35 270.73-25.35 270.73-10.05Q270.73-5.6 274.63-5.6L274.63-5.6Q279.38-5.6 279.38-11.95L279.38-11.95ZM298.82-12.6L298.82-12.6Q299.02-9.25 300.82-7.4 302.62-5.55 305.57-5.55L305.57-5.55Q308.72-5.55 311.62-7.3L311.62-7.3 311.62-1.2Q308.67 0.4 304.52 0.4L304.52 0.4Q298.82 0.4 295.12-3.23 291.42-6.85 291.42-12.6L291.42-12.6Q291.52-18.3 295.12-22.03 298.72-25.75 304.97-25.75L304.97-25.75Q308.82-25.75 311.62-24.3L311.62-24.3 311.62-18.05Q308.97-19.7 305.72-19.7L305.72-19.7Q302.67-19.7 300.77-17.88 298.87-16.05 298.82-12.6ZM328.67-8.55L328.67-10.4 326.32-10.4Q324.47-10.4 323.47-9.6 322.47-8.8 322.47-7.55L322.47-7.55Q322.47-5 325.42-5L325.42-5Q326.97-5 327.82-5.95 328.67-6.9 328.67-8.55L328.67-8.55ZM316.82-17.55L316.82-17.55 316.82-24.1Q319.82-25.8 325.47-25.8L325.47-25.8Q330.87-25.8 333.52-23.48 336.17-21.15 336.17-16.25L336.17-16.25 336.17 0 329.02 0 329.02-3.1Q327.42 0.15 322.72 0.15L322.72 0.15Q319.02 0.15 316.95-1.95 314.87-4.05 314.87-7.2L314.87-7.2Q314.87-10.85 317.55-12.88 320.22-14.9 325.47-14.9L325.47-14.9 328.67-14.9 328.67-16.65Q328.67-19.85 324.42-19.85L324.42-19.85Q320.32-19.85 316.82-17.55ZM356.27-20L350.37-20 350.37-8.35Q350.37-7 351.14-6.3 351.92-5.6 353.17-5.6L353.17-5.6Q355.17-5.6 356.72-6.6L356.72-6.6 356.72-0.55Q354.87 0.25 351.72 0.25L351.72 0.25Q343.07 0.25 343.07-8.4L343.07-8.4 343.07-20 339.42-20 339.42-25.35 343.07-25.35 343.07-31.35 350.37-31.35 350.37-25.35 356.27-25.35 356.27-20ZM368.77 0L361.47 0 361.47-25.35 368.77-25.35 368.77 0ZM362.12-29.7Q360.87-30.95 360.87-32.7 360.87-34.45 362.12-35.7 363.37-36.95 365.12-36.95 366.87-36.95 368.12-35.7 369.37-34.45 369.37-32.7 369.37-30.95 368.12-29.7 366.87-28.45 365.12-28.45 363.37-28.45 362.12-29.7ZM386.21 0.4L386.21 0.4Q380.26 0.4 377.01-3.18 373.76-6.75 373.76-12.35L373.76-12.35Q373.76-18.2 377.16-21.98 380.56-25.75 386.21-25.75L386.21-25.75Q392.11-25.75 395.36-22.1 398.61-18.45 398.61-12.8L398.61-12.8Q398.61-7.05 395.34-3.33 392.06 0.4 386.21 0.4ZM386.16-20L386.16-20Q383.76-20 382.56-17.95 381.36-15.9 381.36-12.65 381.36-9.4 382.59-7.33 383.81-5.25 386.26-5.25L386.26-5.25Q388.66-5.25 389.84-7.28 391.01-9.3 391.01-12.55L391.01-12.55Q391.01-20 386.16-20ZM403.36-25.35L410.66-25.35 410.66-21.05Q411.61-23.15 413.59-24.38 415.56-25.6 418.31-25.6L418.31-25.6Q422.21-25.6 424.41-23.28 426.61-20.95 426.61-16.45L426.61-16.45 426.61 0 419.31 0 419.31-15.1Q419.31-17.35 418.26-18.53 417.21-19.7 415.31-19.7L415.31-19.7Q413.31-19.7 411.99-18.13 410.66-16.55 410.66-13.4L410.66-13.4 410.66 0 403.36 0 403.36-25.35ZM461.21-20.1L474.16-20.1 474.16-3.1Q469.36 0.4 462.06 0.4L462.06 0.4Q453.96 0.4 448.91-4.25 443.86-8.9 443.86-16.9L443.86-16.9Q443.86-24.8 449.13-29.55 454.41-34.3 462.51-34.3L462.51-34.3Q468.21-34.3 472.36-32.2L472.36-32.2 472.36-24.5Q467.56-27.25 462.51-27.25L462.51-27.25Q457.76-27.25 454.96-24.43 452.16-21.6 452.16-16.9L452.16-16.9Q452.16-12.15 454.91-9.35 457.66-6.55 462.41-6.55L462.41-6.55Q464.56-6.55 466.66-7.2L466.66-7.2 466.66-13.55 461.21-13.55 461.21-20.1ZM480.15-25.35L487.4-25.35 487.4-20.65Q488.1-22.85 489.73-24.18 491.35-25.5 493.5-25.5L493.5-25.5Q494.7-25.5 495.4-25.3L495.4-25.3 495.4-18.4Q494.2-18.95 492.65-18.95L492.65-18.95Q490.3-18.95 488.85-17.23 487.4-15.5 487.4-12.65L487.4-12.65 487.4 0 480.1 0 480.15-25.35ZM509.85 0.4L509.85 0.4Q503.9 0.4 500.65-3.18 497.4-6.75 497.4-12.35L497.4-12.35Q497.4-18.2 500.8-21.98 504.2-25.75 509.85-25.75L509.85-25.75Q515.75-25.75 519-22.1 522.25-18.45 522.25-12.8L522.25-12.8Q522.25-7.05 518.98-3.33 515.7 0.4 509.85 0.4ZM509.8-20L509.8-20Q507.4-20 506.2-17.95 505-15.9 505-12.65 505-9.4 506.23-7.33 507.45-5.25 509.9-5.25L509.9-5.25Q512.3-5.25 513.48-7.28 514.65-9.3 514.65-12.55L514.65-12.55Q514.65-20 509.8-20ZM542.7-11.95L542.7-25.35 550-25.35 550 0 542.7 0 542.7-4.05Q540.7 0.2 535 0.2L535 0.2Q531.1 0.2 528.92-1.98 526.75-4.15 526.75-8.4L526.75-8.4 526.75-25.35 534.05-25.35 534.05-10.05Q534.05-5.6 537.95-5.6L537.95-5.6Q542.7-5.6 542.7-11.95L542.7-11.95ZM569-5.8L569-5.8Q571.39-5.8 572.89-7.63 574.39-9.45 574.39-12.6L574.39-12.6Q574.39-16.05 572.87-17.82 571.35-19.6 569-19.6L569-19.6Q566.7-19.6 565-17.85 563.29-16.1 563.29-12.95L563.29-12.95Q563.29-9.7 564.89-7.75 566.5-5.8 569-5.8ZM556-25.35L563.29-25.35 563.29-21.45Q565.95-25.65 570.95-25.65L570.95-25.65Q575.85-25.65 578.82-22.18 581.79-18.7 581.79-12.75L581.79-12.75Q581.79-7.1 578.92-3.4 576.04 0.3 570.95 0.3L570.95 0.3Q565.79 0.3 563.29-3.75L563.29-3.75 563.29 9.35 556 9.35 556-25.35Z" opacity="1" transform="matrix(1,0,0,1,0,0)" fill="#ffffff" class="wordmark-text-0" data-fill-palette-color="quaternary" id="text-0"></path></svg></g></svg></g></svg></g></svg></g></svg></g><defs></defs></svg><rect width="356.12052" height="64.643384548115" fill="none" stroke="none" visibility="hidden"></rect></g></svg></g></svg>